<?xml version="1.0" encoding="utf-8"?>
<!-- Generator: Adobe Illustrator 15.0.0, SVG Export Plug-In . SVG Version: 6.00 Build 0)  -->
<!DOCTYPE svg PUBLIC "-//W3C//DTD SVG 1.1//EN" "http://www.w3.org/Graphics/SVG/1.1/DTD/svg11.dtd">
<svg version="1.1" id="Layer_1" xmlns="http://www.w3.org/2000/svg" xmlns:xlink="http://www.w3.org/1999/xlink" x="0px" y="0px"
	 width="64px" height="64px" viewBox="0 0 64 64" enable-background="new 0 0 64 64" xml:space="preserve">
<title>email</title>
<path fill="#A9A9A9" d="M57,12H7c-1.455-0.202-2.798,0.814-3,2.27C3.966,14.512,3.966,14.758,4,15v34c0,2.07,0.92,3,3,3h50
	c2,0,3-1,3-3V15c0.201-1.455-0.814-2.798-2.27-3C57.488,11.966,57.242,11.966,57,12z M43.71,34.29
	c-0.359-0.419-0.99-0.468-1.41-0.109c-0.419,0.359-0.468,0.991-0.108,1.41c0.033,0.039,0.069,0.075,0.108,0.109L56.59,50H7.41
	L21.7,35.71c0.359-0.419,0.31-1.051-0.109-1.41c-0.375-0.32-0.926-0.32-1.301,0L6,48.59V15.25l23.11,23.109
	c1.562,1.563,4.094,1.564,5.658,0.004c0-0.001,0.002-0.002,0.002-0.004L58,15.13v33.45L43.71,34.29z M7.58,14H56.3l-22.94,23
	c-0.779,0.781-2.046,0.782-2.828,0.002c0-0.001-0.001-0.002-0.002-0.002L7.58,14z"/>
</svg>
